<svg xmlns="http://www.w3.org/2000/svg" xmlns:xlink="http://www.w3.org/1999/xlink" viewBox="0 0 504.39 499.07"><defs><style>.cls-1{fill:none;stroke:#89c781;stroke-miterlimit:10;stroke-width:8px;}.cls-2{fill:url(#linear-gradient);}</style><linearGradient id="linear-gradient" x1="49.45" y1="244.81" x2="457.7" y2="244.81" gradientTransform="translate(-80.66 132.93) rotate(-25.49)" gradientUnits="userSpaceOnUse"><stop offset="0" stop-color="#75c189"/><stop offset="0.19" stop-color="#70c08a"/><stop offset="0.41" stop-color="#63bc8d"/><stop offset="0.64" stop-color="#4cb593"/><stop offset="0.88" stop-color="#2cac9a"/><stop offset="1" stop-color="#19a79f"/></linearGradient></defs><title>point</title><g id="Layer_2" data-name="Layer 2"><g id="Layer_1-2" data-name="Layer 1"><path class="cls-1" d="M362.07,24.84,74,62.22c-25.22,4.23-51.23,40.71-47,65.93L76.8,425c4.23,25.22,45.31,54.51,70.54,50.28l279.87-61.87c25.22-4.23,56.37-31.17,52.14-56.4L432,74.71C427.8,49.49,387.3,20.61,362.07,24.84Z"/><path class="cls-2" d="M297.37,3.48,30.73,118.67c-23.08,11-38,53.22-27,76.31L133.21,466.69c11,23.09,58.56,39.94,81.64,28.93L466.9,359.14c23.09-11,45.62-45.48,34.61-68.57L378.34,32.18C367.34,9.09,320.45-7.53,297.37,3.48Z"/></g></g></svg>