<svg xmlns="http://www.w3.org/2000/svg" viewBox="0 0 741.03 542.12"><defs><style>.cls-1{fill:#f39518;}</style></defs><title>point2</title><g id="Layer_2" data-name="Layer 2"><g id="Layer_1-2" data-name="Layer 1"><circle class="cls-1" cx="14.61" cy="14.61" r="14.61"/><circle class="cls-1" cx="103.59" cy="14.61" r="14.61"/><circle class="cls-1" cx="192.56" cy="14.61" r="14.61"/><circle class="cls-1" cx="281.54" cy="14.61" r="14.61"/><circle class="cls-1" cx="370.52" cy="14.61" r="14.61"/><circle class="cls-1" cx="459.49" cy="14.61" r="14.61"/><circle class="cls-1" cx="548.47" cy="14.61" r="14.61"/><circle class="cls-1" cx="637.45" cy="14.61" r="14.61"/><circle class="cls-1" cx="726.43" cy="14.61" r="14.61"/><circle class="cls-1" cx="14.61" cy="100.09" r="14.61"/><circle class="cls-1" cx="103.59" cy="100.09" r="14.61"/><circle class="cls-1" cx="192.56" cy="100.09" r="14.61"/><circle class="cls-1" cx="281.54" cy="100.09" r="14.61"/><circle class="cls-1" cx="370.52" cy="100.09" r="14.61"/><circle class="cls-1" cx="459.49" cy="100.09" r="14.61"/><circle class="cls-1" cx="548.47" cy="100.09" r="14.61"/><circle class="cls-1" cx="637.45" cy="100.09" r="14.61"/><circle class="cls-1" cx="726.43" cy="100.09" r="14.61"/><circle class="cls-1" cx="14.61" cy="185.58" r="14.61"/><circle class="cls-1" cx="103.59" cy="185.58" r="14.61"/><circle class="cls-1" cx="192.56" cy="185.58" r="14.61"/><circle class="cls-1" cx="281.54" cy="185.58" r="14.61"/><circle class="cls-1" cx="370.52" cy="185.58" r="14.61"/><circle class="cls-1" cx="459.49" cy="185.58" r="14.61"/><circle class="cls-1" cx="548.47" cy="185.58" r="14.61"/><circle class="cls-1" cx="637.45" cy="185.58" r="14.61"/><circle class="cls-1" cx="726.43" cy="185.58" r="14.61"/><circle class="cls-1" cx="14.61" cy="271.06" r="14.61"/><circle class="cls-1" cx="103.59" cy="271.06" r="14.61"/><circle class="cls-1" cx="192.56" cy="271.06" r="14.61"/><circle class="cls-1" cx="281.54" cy="271.06" r="14.61"/><circle class="cls-1" cx="370.52" cy="271.06" r="14.61"/><circle class="cls-1" cx="459.49" cy="271.06" r="14.61"/><circle class="cls-1" cx="548.47" cy="271.06" r="14.61"/><circle class="cls-1" cx="637.45" cy="271.06" r="14.61"/><circle class="cls-1" cx="726.43" cy="271.06" r="14.61"/><circle class="cls-1" cx="14.61" cy="356.54" r="14.61"/><circle class="cls-1" cx="103.59" cy="356.54" r="14.61"/><circle class="cls-1" cx="192.56" cy="356.54" r="14.61"/><circle class="cls-1" cx="281.54" cy="356.54" r="14.61"/><circle class="cls-1" cx="370.52" cy="356.54" r="14.61"/><circle class="cls-1" cx="459.49" cy="356.54" r="14.61"/><circle class="cls-1" cx="548.47" cy="356.54" r="14.61"/><circle class="cls-1" cx="637.45" cy="356.54" r="14.61"/><circle class="cls-1" cx="726.43" cy="356.54" r="14.61"/><circle class="cls-1" cx="14.61" cy="442.03" r="14.61"/><circle class="cls-1" cx="103.59" cy="442.03" r="14.61"/><circle class="cls-1" cx="192.56" cy="442.03" r="14.61"/><circle class="cls-1" cx="281.54" cy="442.03" r="14.61"/><circle class="cls-1" cx="370.52" cy="442.03" r="14.61"/><circle class="cls-1" cx="459.49" cy="442.03" r="14.61"/><circle class="cls-1" cx="548.47" cy="442.03" r="14.61"/><circle class="cls-1" cx="637.45" cy="442.03" r="14.61"/><circle class="cls-1" cx="726.43" cy="442.03" r="14.61"/><circle class="cls-1" cx="14.61" cy="527.51" r="14.61"/><circle class="cls-1" cx="103.59" cy="527.51" r="14.61"/><circle class="cls-1" cx="192.56" cy="527.51" r="14.61"/><circle class="cls-1" cx="281.54" cy="527.51" r="14.61"/><circle class="cls-1" cx="370.52" cy="527.51" r="14.61"/><circle class="cls-1" cx="459.49" cy="527.51" r="14.61"/><circle class="cls-1" cx="548.47" cy="527.51" r="14.61"/><circle class="cls-1" cx="637.45" cy="527.51" r="14.61"/><circle class="cls-1" cx="726.43" cy="527.51" r="14.61"/></g></g></svg>